<?xml version="1.0" encoding="UTF-8"?>
<svg width="558px" height="332px" viewBox="0 0 558 332" version="1.1" xmlns="http://www.w3.org/2000/svg" xmlns:xlink="http://www.w3.org/1999/xlink">
    <!-- Generator: Sketch 52.6 (67491) - http://www.bohemiancoding.com/sketch -->
    <title>CaseGuard-Languages</title>
    <desc>Created with Sketch.</desc>
    <defs>
        <path d="M165.527344,77.0844727 L166.612793,77.0844727 C167.225101,77.0844727 167.631754,76.9283056 167.832764,76.6159668 C168.033774,76.303628 168.134277,75.7732785 168.134277,75.0249023 C168.134277,74.7589505 168.126546,74.5362965 168.111084,74.3569336 C168.095622,74.1775707 168.058513,73.9951181 167.999756,73.8095703 C167.940999,73.6240225 167.857504,73.4771327 167.749268,73.3688965 C167.641031,73.2606603 167.491049,73.1725264 167.299316,73.1044922 C167.107584,73.036458 166.875652,73.0024414 166.603516,73.0024414 L165.527344,73.0024414 L165.527344,77.0844727 Z M162.131836,86 L162.131836,70.6181641 L167.262207,70.6181641 C168.622891,70.6181641 169.640296,70.9985314 170.314453,71.7592773 C170.98861,72.5200233 171.325684,73.6271086 171.325684,75.0805664 C171.325684,75.6557646 171.274659,76.1721982 171.172607,76.6298828 C171.070556,77.0875674 170.920574,77.4741195 170.722656,77.7895508 C170.524739,78.104982 170.2959,78.3724761 170.036133,78.592041 C169.776366,78.8116059 169.473309,78.9832351 169.126953,79.1069336 C168.780597,79.2306321 168.426515,79.318766 168.064697,79.3713379 C167.702879,79.4239098 167.302411,79.4501953 166.863281,79.4501953 L165.527344,79.4501953 L165.527344,86 L162.131836,86 Z M177.328125,86.2133789 C176.474605,86.2133789 175.746341,86.1005057 175.143311,85.8747559 C174.54028,85.649006 174.060956,85.3119326 173.705322,84.8635254 C173.349689,84.4151182 173.093018,83.8878611 172.935303,83.2817383 C172.777587,82.6756155 172.69873,81.9612671 172.69873,81.1386719 L172.69873,75.4609375 C172.69873,74.6321573 172.777587,73.9162628 172.935303,73.3132324 C173.093018,72.7102021 173.349689,72.1860374 173.705322,71.7407227 C174.060956,71.2954079 174.54028,70.9614269 175.143311,70.7387695 C175.746341,70.5161122 176.474605,70.4047852 177.328125,70.4047852 C178.99187,70.4047852 180.183997,70.8299925 180.904541,71.6804199 C181.625085,72.5308474 181.985352,73.7910073 181.985352,75.4609375 L181.985352,81.1386719 C181.985352,82.8086021 181.625085,84.0718544 180.904541,84.9284668 C180.183997,85.7850792 178.99187,86.2133789 177.328125,86.2133789 Z M176.799316,83.6992188 C176.947755,83.7734379 177.124022,83.8105469 177.328125,83.8105469 C177.532228,83.8105469 177.708495,83.7749841 177.856934,83.7038574 C178.005372,83.6327308 178.119791,83.5430507 178.200195,83.4348145 C178.280599,83.3265782 178.343994,83.1858733 178.390381,83.0126953 C178.436768,82.8395174 178.466146,82.6771655 178.478516,82.5256348 C178.490885,82.3741041 178.49707,82.1931977 178.49707,81.9829102 L178.49707,74.6074219 C178.49707,74.4033193 178.490885,74.2255053 178.478516,74.0739746 C178.466146,73.9224439 178.436768,73.7616382 178.390381,73.5915527 C178.343994,73.4214672 178.280599,73.2838547 178.200195,73.1787109 C178.119791,73.0735672 178.005372,72.9854333 177.856934,72.9143066 C177.708495,72.84318 177.532228,72.8076172 177.328125,72.8076172 C177.124022,72.8076172 176.949301,72.84318 176.803955,72.9143066 C176.658609,72.9854333 176.545736,73.072021 176.465332,73.1740723 C176.384928,73.2761236 176.32308,73.4152823 176.279785,73.5915527 C176.236491,73.7678231 176.210205,73.9270826 176.200928,74.0693359 C176.19165,74.2115893 176.187012,74.3909494 176.187012,74.6074219 L176.187012,81.9829102 C176.187012,82.1993826 176.19165,82.380289 176.200928,82.5256348 C176.210205,82.6709805 176.236491,82.8317862 176.279785,83.0080566 C176.32308,83.1843271 176.384928,83.325032 176.465332,83.4301758 C176.545736,83.5353195 176.657063,83.6249996 176.799316,83.6992188 Z M187.421875,77.1586914 L188.293945,77.1586914 C188.986657,77.1586914 189.475259,76.9793312 189.759766,76.6206055 C190.044272,76.2618797 190.186523,75.7207067 190.186523,74.9970703 C190.186523,74.2858037 190.058188,73.7585466 189.801514,73.4152832 C189.544839,73.0720198 189.101077,72.9003906 188.470215,72.9003906 L187.421875,72.9003906 L187.421875,77.1586914 Z M184.026367,86 L184.026367,70.6181641 L188.219727,70.6181641 C188.869144,70.6181641 189.444333,70.6552731 189.945312,70.7294922 C190.446292,70.8037113 190.916339,70.9335928 191.355469,71.1191406 C191.794599,71.3046884 192.156411,71.5489894 192.440918,71.8520508 C192.725425,72.1551122 192.948079,72.5447567 193.108887,73.0209961 C193.269695,73.4972355 193.350098,74.0538705 193.350098,74.690918 C193.350098,75.699061 193.214031,76.5092743 192.941895,77.121582 C192.669758,77.7338898 192.178063,78.210122 191.466797,78.550293 L193.582031,86 L190.065918,86 L188.377441,79.1162109 L187.421875,79.1162109 L187.421875,86 L184.026367,86 Z M196.80127,86 L196.80127,73.1323242 L194.435547,73.1323242 L194.435547,70.6181641 L202.543945,70.6181641 L202.543945,73.1323242 L200.206055,73.1323242 L200.206055,86 L196.80127,86 Z M208.305176,86.2133789 C207.606279,86.2133789 206.995527,86.1407071 206.4729,85.9953613 C205.950274,85.8500155 205.517336,85.6443698 205.174072,85.378418 C204.830809,85.1124661 204.552491,84.7676616 204.339111,84.3439941 C204.125731,83.9203267 203.975749,83.4533717 203.88916,82.9431152 C203.802571,82.4328588 203.759277,81.8375685 203.759277,81.1572266 L203.759277,70.6181641 L207.117676,70.6181641 L207.117676,81.6582031 C207.117676,81.8994153 207.123861,82.105061 207.13623,82.2751465 C207.1486,82.445232 207.177978,82.6292308 207.224365,82.8271484 C207.270752,83.0250661 207.334147,83.187418 207.414551,83.314209 C207.494955,83.441 207.61092,83.5461422 207.762451,83.6296387 C207.913982,83.7131352 208.094888,83.7548828 208.305176,83.7548828 C208.515463,83.7548828 208.694823,83.7131352 208.843262,83.6296387 C208.9917,83.5461422 209.106119,83.441 209.186523,83.314209 C209.266927,83.187418 209.330322,83.0250661 209.376709,82.8271484 C209.423096,82.6292308 209.452474,82.4436858 209.464844,82.2705078 C209.477214,82.0973299 209.483398,81.8932303 209.483398,81.6582031 L209.483398,70.6181641 L212.851074,70.6181641 L212.851074,81.1572266 C212.851074,82.0107465 212.778402,82.7374644 212.633057,83.3374023 C212.487711,83.9373402 212.244956,84.4599587 211.904785,84.9052734 C211.564614,85.3505882 211.097659,85.6799306 210.503906,85.8933105 C209.910153,86.1066905 209.17725,86.2133789 208.305176,86.2133789 Z M219.029785,86.2226562 C218.250484,86.2226562 217.584069,86.0974134 217.030518,85.8469238 C216.476967,85.5964343 216.03939,85.2299829 215.717773,84.7475586 C215.396157,84.2651343 215.16268,83.7084992 215.017334,83.0776367 C214.871988,82.4467742 214.799316,81.7169638 214.799316,80.8881836 L214.799316,75.7763672 C214.799316,75.0960252 214.847249,74.4868191 214.943115,73.9487305 C215.038982,73.4106418 215.196695,72.9158551 215.41626,72.4643555 C215.635825,72.0128558 215.921873,71.6386734 216.274414,71.3417969 C216.626955,71.0449204 217.066078,70.8145353 217.591797,70.6506348 C218.117516,70.4867342 218.726722,70.4047852 219.419434,70.4047852 C220.087406,70.4047852 220.678057,70.4759107 221.191406,70.6181641 C221.704755,70.7604174 222.133055,70.9583321 222.476318,71.2119141 C222.819582,71.4654961 223.099446,71.7824688 223.315918,72.1628418 C223.53239,72.5432148 223.687011,72.9575987 223.779785,73.4060059 C223.872559,73.854413 223.918945,74.3569308 223.918945,74.9135742 L223.918945,75.8876953 L220.597656,75.8876953 L220.597656,74.6538086 C220.597656,74.4187814 220.593018,74.2270515 220.58374,74.0786133 C220.574463,73.930175 220.549724,73.7662769 220.509521,73.5869141 C220.469319,73.4075512 220.410564,73.2683924 220.333252,73.1694336 C220.25594,73.0704748 220.144613,72.9854333 219.999268,72.9143066 C219.853922,72.84318 219.676108,72.8076172 219.46582,72.8076172 C219.249348,72.8076172 219.065349,72.8478186 218.913818,72.9282227 C218.762288,73.0086267 218.646322,73.1060378 218.565918,73.220459 C218.485514,73.3348801 218.422119,73.4879548 218.375732,73.6796875 C218.329345,73.8714202 218.301514,74.0461418 218.292236,74.2038574 C218.282959,74.3615731 218.27832,74.5548491 218.27832,74.7836914 L218.27832,81.8251953 C218.27832,82.4375031 218.369547,82.9214663 218.552002,83.2770996 C218.734457,83.6327329 219.066892,83.8105469 219.549316,83.8105469 C220.439946,83.8105469 220.885254,83.1271227 220.885254,81.7602539 L220.885254,80.034668 L219.493652,80.034668 L219.493652,78.0029297 L223.956055,78.0029297 L223.956055,86 L221.70166,86 L221.506836,84.7104492 C221.055336,85.7185923 220.229661,86.2226562 219.029785,86.2226562 Z M230.496582,86.2133789 C229.797685,86.2133789 229.186933,86.1407071 228.664307,85.9953613 C228.14168,85.8500155 227.708742,85.6443698 227.365479,85.378418 C227.022215,85.1124661 226.743898,84.7676616 226.530518,84.3439941 C226.317138,83.9203267 226.167155,83.4533717 226.080566,82.9431152 C225.993977,82.4328588 225.950684,81.8375685 225.950684,81.1572266 L225.950684,70.6181641 L229.309082,70.6181641 L229.309082,81.6582031 C229.309082,81.8994153 229.315267,82.105061 229.327637,82.2751465 C229.340007,82.445232 229.369385,82.6292308 229.415771,82.8271484 C229.462158,83.0250661 229.525553,83.187418 229.605957,83.314209 C229.686361,83.441 229.802327,83.5461422 229.953857,83.6296387 C230.105388,83.7131352 230.286295,83.7548828 230.496582,83.7548828 C230.70687,83.7548828 230.88623,83.7131352 231.034668,83.6296387 C231.183106,83.5461422 231.297526,83.441 231.37793,83.314209 C231.458334,83.187418 231.521728,83.0250661 231.568115,82.8271484 C231.614502,82.6292308 231.64388,82.4436858 231.65625,82.2705078 C231.66862,82.0973299 231.674805,81.8932303 231.674805,81.6582031 L231.674805,70.6181641 L235.04248,70.6181641 L235.04248,81.1572266 C235.04248,82.0107465 234.969809,82.7374644 234.824463,83.3374023 C234.679117,83.9373402 234.436362,84.4599587 234.096191,84.9052734 C233.75602,85.3505882 233.289065,85.6799306 232.695312,85.8933105 C232.10156,86.1066905 231.368657,86.2133789 230.496582,86.2133789 Z M237.204102,86 L237.204102,70.6181641 L244.115723,70.6181641 L244.115723,72.9375 L240.599609,72.9375 L240.599609,76.7412109 L243.280762,76.7412109 L243.280762,79.1069336 L240.599609,79.1069336 L240.599609,83.6992188 L244.152832,83.6992188 L244.152832,86 L237.204102,86 Z M249.774902,86.2133789 C248.31526,86.2133789 247.228275,85.8252806 246.513916,85.0490723 C245.799557,84.272864 245.414551,83.034351 245.358887,81.3334961 L248.271973,80.8881836 C248.284343,81.8530322 248.400308,82.5534646 248.619873,82.989502 C248.839438,83.4255393 249.16878,83.6435547 249.60791,83.6435547 C250.183108,83.6435547 250.470703,83.2724646 250.470703,82.5302734 C250.470703,82.1158833 250.396485,81.7339698 250.248047,81.3845215 C250.099609,81.0350731 249.917156,80.7366549 249.700684,80.4892578 C249.484211,80.2418607 249.181154,79.9511735 248.791504,79.6171875 L247.427734,78.4389648 C247.099933,78.1544582 246.827801,77.8946952 246.611328,77.659668 C246.394856,77.4246408 246.183025,77.144777 245.97583,76.8200684 C245.768635,76.4953597 245.61556,76.1350931 245.516602,75.7392578 C245.417643,75.3434225 245.368164,74.9073917 245.368164,74.4311523 C245.368164,73.1508725 245.751624,72.1612991 246.518555,71.4624023 C247.285486,70.7635056 248.336907,70.4109701 249.672852,70.4047852 C250.130536,70.4047852 250.546466,70.4542638 250.920654,70.5532227 C251.294842,70.6521815 251.610269,70.782063 251.866943,70.9428711 C252.123618,71.1036792 252.349364,71.3062325 252.544189,71.5505371 C252.739015,71.7948417 252.893635,72.0391427 253.008057,72.2834473 C253.122478,72.5277519 253.218343,72.802977 253.295654,73.1091309 C253.372966,73.4152847 253.425537,73.6951485 253.453369,73.9487305 C253.481201,74.2023125 253.501302,74.4744452 253.513672,74.7651367 L250.572754,75.1455078 C250.566569,74.8857409 250.558838,74.6708179 250.549561,74.5007324 C250.540283,74.3306469 250.523275,74.1497405 250.498535,73.9580078 C250.473795,73.7662751 250.439779,73.6116542 250.396484,73.4941406 C250.35319,73.376627 250.29598,73.2668462 250.224854,73.1647949 C250.153727,73.0627436 250.064047,72.9900718 249.955811,72.9467773 C249.847574,72.9034829 249.719239,72.8849284 249.570801,72.8911133 C249.273924,72.8972982 249.046632,73.0225411 248.888916,73.2668457 C248.7312,73.5111503 248.652344,73.7848292 248.652344,74.0878906 C248.652344,74.3785822 248.687907,74.6429838 248.759033,74.8811035 C248.83016,75.1192232 248.953857,75.3496083 249.130127,75.5722656 C249.306397,75.794923 249.450195,75.9619135 249.561523,76.0732422 C249.672852,76.1845709 249.858397,76.3577462 250.118164,76.5927734 L251.42627,77.7431641 C251.784995,78.0647803 252.094237,78.3724757 252.354004,78.6662598 C252.613771,78.9600438 252.861164,79.2940248 253.096191,79.6682129 C253.331219,80.042401 253.509033,80.4536924 253.629639,80.9020996 C253.750245,81.3505068 253.810547,81.8313776 253.810547,82.3447266 C253.810547,83.4580134 253.439457,84.3810999 252.697266,85.1140137 C251.955074,85.8469275 250.980963,86.2133789 249.774902,86.2133789 Z M255.452637,86 L255.452637,70.6181641 L262.364258,70.6181641 L262.364258,72.9375 L258.848145,72.9375 L258.848145,76.7412109 L261.529297,76.7412109 L261.529297,79.1069336 L258.848145,79.1069336 L258.848145,83.6992188 L262.401367,83.6992188 L262.401367,86 L255.452637,86 Z" id="path-1"></path>
        <path d="M264.310547,140 L264.310547,122.189453 L272.313477,122.189453 L272.313477,124.875 L268.242188,124.875 L268.242188,129.279297 L271.34668,129.279297 L271.34668,132.018555 L268.242188,132.018555 L268.242188,137.335938 L272.356445,137.335938 L272.356445,140 L264.310547,140 Z M274.139648,140 L274.139648,122.189453 L276.911133,122.189453 L280.574219,130.740234 L280.574219,122.189453 L283.839844,122.189453 L283.839844,140 L281.175781,140 L277.501953,130.783203 L277.501953,140 L274.139648,140 Z M291.101562,140.257812 C290.199214,140.257812 289.427575,140.112794 288.786621,139.822754 C288.145667,139.532713 287.638999,139.108401 287.266602,138.549805 C286.894204,137.991208 286.623862,137.346683 286.455566,136.616211 C286.287271,135.885739 286.203125,135.040695 286.203125,134.081055 L286.203125,128.162109 C286.203125,127.374345 286.258626,126.668948 286.369629,126.045898 C286.480632,125.422848 286.663247,124.849938 286.91748,124.327148 C287.171714,123.804359 287.502928,123.371095 287.911133,123.027344 C288.319338,122.683592 288.827796,122.41683 289.436523,122.227051 C290.04525,122.037271 290.750647,121.942383 291.552734,121.942383 C292.326176,121.942383 293.010088,122.024739 293.604492,122.189453 C294.198896,122.354167 294.694822,122.583332 295.092285,122.876953 C295.489748,123.170574 295.813801,123.537595 296.064453,123.978027 C296.315105,124.418459 296.49414,124.898272 296.601562,125.41748 C296.708985,125.936689 296.762695,126.518551 296.762695,127.163086 L296.762695,128.291016 L292.916992,128.291016 L292.916992,126.862305 C292.916992,126.590168 292.911621,126.368165 292.900879,126.196289 C292.890137,126.024413 292.861491,125.834636 292.814941,125.626953 C292.768392,125.41927 292.700359,125.258139 292.61084,125.143555 C292.521321,125.028971 292.392416,124.930502 292.224121,124.848145 C292.055826,124.765787 291.849936,124.724609 291.606445,124.724609 C291.355793,124.724609 291.142742,124.771158 290.967285,124.864258 C290.791829,124.957357 290.657553,125.070149 290.564453,125.202637 C290.471354,125.335124 290.397949,125.512369 290.344238,125.734375 C290.290527,125.956381 290.258301,126.15869 290.247559,126.341309 C290.236816,126.523927 290.231445,126.74772 290.231445,127.012695 L290.231445,135.166016 C290.231445,135.875004 290.337076,136.435382 290.54834,136.847168 C290.759604,137.258954 291.144528,137.464844 291.703125,137.464844 C292.73438,137.464844 293.25,136.673511 293.25,135.09082 L293.25,133.092773 L291.638672,133.092773 L291.638672,130.740234 L296.805664,130.740234 L296.805664,140 L294.195312,140 L293.969727,138.506836 C293.446937,139.674159 292.490892,140.257812 291.101562,140.257812 Z M299.233398,140 L299.233398,122.189453 L303.165039,122.189453 L303.165039,137.335938 L307.24707,137.335938 L307.24707,140 L299.233398,140 Z M308.998047,140 L308.998047,122.189453 L312.929688,122.189453 L312.929688,140 L308.998047,140 Z M320.298828,140.24707 C318.608716,140.24707 317.350102,139.797693 316.522949,138.898926 C315.695797,138.000158 315.25,136.566091 315.185547,134.59668 L318.558594,134.081055 C318.572917,135.198248 318.707193,136.009275 318.961426,136.51416 C319.215659,137.019045 319.597003,137.271484 320.105469,137.271484 C320.771488,137.271484 321.104492,136.841801 321.104492,135.982422 C321.104492,135.502602 321.018556,135.060386 320.84668,134.655762 C320.674804,134.251137 320.463543,133.9056 320.212891,133.619141 C319.962238,133.332681 319.61133,132.996096 319.160156,132.609375 L317.581055,131.245117 C317.201495,130.915688 316.886394,130.61491 316.635742,130.342773 C316.38509,130.070637 316.139812,129.746584 315.899902,129.370605 C315.659992,128.994627 315.482748,128.577476 315.368164,128.119141 C315.25358,127.660805 315.196289,127.155927 315.196289,126.604492 C315.196289,125.122063 315.640295,123.976241 316.52832,123.166992 C317.416346,122.357743 318.633781,121.949544 320.180664,121.942383 C320.710615,121.942383 321.192218,121.999674 321.625488,122.114258 C322.058759,122.228842 322.423989,122.379231 322.721191,122.56543 C323.018393,122.751629 323.279784,122.986164 323.505371,123.269043 C323.730958,123.551922 323.909993,123.834797 324.04248,124.117676 C324.174968,124.400555 324.28597,124.719237 324.375488,125.07373 C324.465007,125.428224 324.525879,125.752277 324.558105,126.045898 C324.590332,126.33952 324.613607,126.654621 324.62793,126.991211 L321.222656,127.431641 C321.215495,127.130858 321.206543,126.882 321.195801,126.685059 C321.185059,126.488118 321.165365,126.278647 321.136719,126.056641 C321.108073,125.834634 321.068685,125.6556 321.018555,125.519531 C320.968424,125.383463 320.902181,125.256348 320.819824,125.138184 C320.737467,125.020019 320.633627,124.935873 320.508301,124.885742 C320.382975,124.835612 320.234376,124.814128 320.0625,124.821289 C319.718748,124.828451 319.455567,124.973469 319.272949,125.256348 C319.090331,125.539227 318.999023,125.856118 318.999023,126.207031 C318.999023,126.543621 319.040201,126.849771 319.122559,127.125488 C319.204916,127.401206 319.348144,127.667967 319.552246,127.925781 C319.756349,128.183595 319.922851,128.376952 320.051758,128.505859 C320.180665,128.634766 320.395506,128.835285 320.696289,129.107422 L322.210938,130.439453 C322.626304,130.811851 322.984373,131.16813 323.285156,131.508301 C323.585939,131.848472 323.872394,132.235187 324.144531,132.668457 C324.416668,133.101727 324.622558,133.57796 324.762207,134.097168 C324.901856,134.616376 324.97168,135.173174 324.97168,135.767578 C324.97168,137.056647 324.541996,138.125484 323.682617,138.974121 C322.823238,139.822758 321.695319,140.24707 320.298828,140.24707 Z M326.948242,140 L326.948242,122.189453 L330.890625,122.189453 L330.890625,129.386719 L333.629883,129.386719 L333.629883,122.189453 L337.572266,122.189453 L337.572266,140 L333.629883,140 L333.629883,132.201172 L330.890625,132.201172 L330.890625,140 L326.948242,140 Z" id="path-2"></path>
        <path d="M345.342773,190 L345.342773,172.189453 L349.274414,172.189453 L349.274414,190 L345.342773,190 Z M353.560547,190 L353.560547,175.100586 L350.821289,175.100586 L350.821289,172.189453 L360.209961,172.189453 L360.209961,175.100586 L357.50293,175.100586 L357.50293,190 L353.560547,190 Z M365.452148,183.866211 L367.353516,183.866211 L366.397461,176.969727 L365.452148,183.866211 Z M360.779297,190 L364.152344,172.189453 L368.599609,172.189453 L371.951172,190 L368.320312,190 L367.708008,186.21875 L365.108398,186.21875 L364.506836,190 L360.779297,190 Z M373.734375,190 L373.734375,172.189453 L377.666016,172.189453 L377.666016,187.335938 L381.748047,187.335938 L381.748047,190 L373.734375,190 Z M383.499023,190 L383.499023,172.189453 L387.430664,172.189453 L387.430664,190 L383.499023,190 Z M393.897461,183.866211 L395.798828,183.866211 L394.842773,176.969727 L393.897461,183.866211 Z M389.224609,190 L392.597656,172.189453 L397.044922,172.189453 L400.396484,190 L396.765625,190 L396.15332,186.21875 L393.553711,186.21875 L392.952148,190 L389.224609,190 Z M402.179688,190 L402.179688,172.189453 L404.951172,172.189453 L408.614258,180.740234 L408.614258,172.189453 L411.879883,172.189453 L411.879883,190 L409.21582,190 L405.541992,180.783203 L405.541992,190 L402.179688,190 Z" id="path-3"></path>
        <path d="M362.037109,116.24707 C360.346997,116.24707 359.088383,115.797693 358.26123,114.898926 C357.434078,114.000158 356.988282,112.566091 356.923828,110.59668 L360.296875,110.081055 C360.311198,111.198248 360.445474,112.009275 360.699707,112.51416 C360.95394,113.019045 361.335284,113.271484 361.84375,113.271484 C362.509769,113.271484 362.842773,112.841801 362.842773,111.982422 C362.842773,111.502602 362.756837,111.060386 362.584961,110.655762 C362.413085,110.251137 362.201824,109.9056 361.951172,109.619141 C361.70052,109.332681 361.349612,108.996096 360.898438,108.609375 L359.319336,107.245117 C358.939777,106.915688 358.624676,106.61491 358.374023,106.342773 C358.123371,106.070637 357.878094,105.746584 357.638184,105.370605 C357.398274,104.994627 357.221029,104.577476 357.106445,104.119141 C356.991861,103.660805 356.93457,103.155927 356.93457,102.604492 C356.93457,101.122063 357.378576,99.976241 358.266602,99.1669922 C359.154627,98.3577433 360.372063,97.9495443 361.918945,97.9423828 C362.448896,97.9423828 362.930499,97.9996739 363.36377,98.1142578 C363.79704,98.2288417 364.162271,98.3792308 364.459473,98.5654297 C364.756675,98.7516285 365.018065,98.986164 365.243652,99.269043 C365.469239,99.551922 365.648274,99.8347968 365.780762,100.117676 C365.913249,100.400555 366.024251,100.719237 366.11377,101.07373 C366.203288,101.428224 366.26416,101.752277 366.296387,102.045898 C366.328613,102.33952 366.351888,102.654621 366.366211,102.991211 L362.960938,103.431641 C362.953776,103.130858 362.944824,102.882 362.934082,102.685059 C362.92334,102.488118 362.903646,102.278647 362.875,102.056641 C362.846354,101.834634 362.806966,101.6556 362.756836,101.519531 C362.706705,101.383463 362.640463,101.256348 362.558105,101.138184 C362.475748,101.020019 362.371908,100.935873 362.246582,100.885742 C362.121256,100.835612 361.972657,100.814128 361.800781,100.821289 C361.45703,100.828451 361.193849,100.973469 361.01123,101.256348 C360.828612,101.539227 360.737305,101.856118 360.737305,102.207031 C360.737305,102.543621 360.778483,102.849771 360.86084,103.125488 C360.943197,103.401206 361.086425,103.667967 361.290527,103.925781 C361.49463,104.183595 361.661132,104.376952 361.790039,104.505859 C361.918946,104.634766 362.133788,104.835285 362.43457,105.107422 L363.949219,106.439453 C364.364585,106.811851 364.722655,107.16813 365.023438,107.508301 C365.32422,107.848472 365.610676,108.235187 365.882812,108.668457 C366.154949,109.101727 366.360839,109.57796 366.500488,110.097168 C366.640137,110.616376 366.709961,111.173174 366.709961,111.767578 C366.709961,113.056647 366.280278,114.125484 365.420898,114.974121 C364.561519,115.822758 363.433601,116.24707 362.037109,116.24707 Z M372.542969,105.676758 L373.799805,105.676758 C374.508793,105.676758 374.979654,105.495933 375.212402,105.134277 C375.445151,104.772622 375.561523,104.158533 375.561523,103.291992 C375.561523,102.984048 375.552572,102.726238 375.534668,102.518555 C375.516764,102.310871 375.473796,102.09961 375.405762,101.884766 C375.337728,101.669921 375.241049,101.499838 375.115723,101.374512 C374.990397,101.249186 374.816733,101.147136 374.594727,101.068359 C374.37272,100.989583 374.104168,100.950195 373.789062,100.950195 L372.542969,100.950195 L372.542969,105.676758 Z M368.611328,116 L368.611328,98.1894531 L374.551758,98.1894531 C376.127287,98.1894531 377.305335,98.6298784 378.085938,99.5107422 C378.86654,100.391606 379.256836,101.673494 379.256836,103.356445 C379.256836,104.022464 379.197754,104.62044 379.07959,105.150391 C378.961425,105.680341 378.787762,106.127928 378.558594,106.493164 C378.329426,106.8584 378.064455,107.16813 377.763672,107.422363 C377.462889,107.676596 377.111981,107.875325 376.710938,108.018555 C376.309894,108.161785 375.899904,108.263834 375.480957,108.324707 C375.06201,108.38558 374.59831,108.416016 374.089844,108.416016 L372.542969,108.416016 L372.542969,116 L368.611328,116 Z M383.983398,109.866211 L385.884766,109.866211 L384.928711,102.969727 L383.983398,109.866211 Z M379.310547,116 L382.683594,98.1894531 L387.130859,98.1894531 L390.482422,116 L386.851562,116 L386.239258,112.21875 L383.639648,112.21875 L383.038086,116 L379.310547,116 Z M392.265625,116 L392.265625,98.1894531 L395.037109,98.1894531 L398.700195,106.740234 L398.700195,98.1894531 L401.96582,98.1894531 L401.96582,116 L399.301758,116 L395.62793,106.783203 L395.62793,116 L392.265625,116 Z M404.608398,116 L404.608398,98.1894531 L408.540039,98.1894531 L408.540039,116 L404.608398,116 Z M415.90918,116.24707 C414.219067,116.24707 412.960453,115.797693 412.133301,114.898926 C411.306148,114.000158 410.860352,112.566091 410.795898,110.59668 L414.168945,110.081055 C414.183268,111.198248 414.317544,112.009275 414.571777,112.51416 C414.82601,113.019045 415.207354,113.271484 415.71582,113.271484 C416.381839,113.271484 416.714844,112.841801 416.714844,111.982422 C416.714844,111.502602 416.628907,111.060386 416.457031,110.655762 C416.285155,110.251137 416.073894,109.9056 415.823242,109.619141 C415.57259,109.332681 415.221682,108.996096 414.770508,108.609375 L413.191406,107.245117 C412.811847,106.915688 412.496746,106.61491 412.246094,106.342773 C411.995441,106.070637 411.750164,105.746584 411.510254,105.370605 C411.270344,104.994627 411.0931,104.577476 410.978516,104.119141 C410.863932,103.660805 410.806641,103.155927 410.806641,102.604492 C410.806641,101.122063 411.250647,99.976241 412.138672,99.1669922 C413.026697,98.3577433 414.244133,97.9495443 415.791016,97.9423828 C416.320966,97.9423828 416.802569,97.9996739 417.23584,98.1142578 C417.66911,98.2288417 418.034341,98.3792308 418.331543,98.5654297 C418.628745,98.7516285 418.890136,98.986164 419.115723,99.269043 C419.34131,99.551922 419.520344,99.8347968 419.652832,100.117676 C419.78532,100.400555 419.896321,100.719237 419.98584,101.07373 C420.075359,101.428224 420.13623,101.752277 420.168457,102.045898 C420.200684,102.33952 420.223958,102.654621 420.238281,102.991211 L416.833008,103.431641 C416.825846,103.130858 416.816895,102.882 416.806152,102.685059 C416.79541,102.488118 416.775716,102.278647 416.74707,102.056641 C416.718424,101.834634 416.679037,101.6556 416.628906,101.519531 C416.578776,101.383463 416.512533,101.256348 416.430176,101.138184 C416.347819,101.020019 416.243978,100.935873 416.118652,100.885742 C415.993326,100.835612 415.844727,100.814128 415.672852,100.821289 C415.3291,100.828451 415.065919,100.973469 414.883301,101.256348 C414.700683,101.539227 414.609375,101.856118 414.609375,102.207031 C414.609375,102.543621 414.650553,102.849771 414.73291,103.125488 C414.815267,103.401206 414.958495,103.667967 415.162598,103.925781 C415.3667,104.183595 415.533202,104.376952 415.662109,104.505859 C415.791016,104.634766 416.005858,104.835285 416.306641,105.107422 L417.821289,106.439453 C418.236656,106.811851 418.594725,107.16813 418.895508,107.508301 C419.196291,107.848472 419.482746,108.235187 419.754883,108.668457 C420.02702,109.101727 420.232909,109.57796 420.372559,110.097168 C420.512208,110.616376 420.582031,111.173174 420.582031,111.767578 C420.582031,113.056647 420.152348,114.125484 419.292969,114.974121 C418.433589,115.822758 417.305671,116.24707 415.90918,116.24707 Z M422.558594,116 L422.558594,98.1894531 L426.500977,98.1894531 L426.500977,105.386719 L429.240234,105.386719 L429.240234,98.1894531 L433.182617,98.1894531 L433.182617,116 L429.240234,116 L429.240234,108.201172 L426.500977,108.201172 L426.500977,116 L422.558594,116 Z" id="path-4"></path>
        <path d="M423.310547,226 L423.310547,208.189453 L431.023438,208.189453 L431.023438,210.864258 L427.242188,210.864258 L427.242188,215.34375 L430.49707,215.34375 L430.49707,218.09375 L427.242188,218.09375 L427.242188,226 L423.310547,226 Z M436.770508,215.762695 L437.780273,215.762695 C438.582361,215.762695 439.14811,215.555015 439.477539,215.139648 C439.806968,214.724282 439.97168,214.09766 439.97168,213.259766 C439.97168,212.436194 439.823081,211.825686 439.525879,211.428223 C439.228677,211.03076 438.714847,210.832031 437.984375,210.832031 L436.770508,210.832031 L436.770508,215.762695 Z M432.838867,226 L432.838867,208.189453 L437.694336,208.189453 C438.446293,208.189453 439.112302,208.232421 439.692383,208.318359 C440.272464,208.404297 440.816729,208.554686 441.325195,208.769531 C441.833661,208.984376 442.252603,209.267251 442.582031,209.618164 C442.91146,209.969077 443.16927,210.420245 443.355469,210.97168 C443.541668,211.523115 443.634766,212.16764 443.634766,212.905273 C443.634766,214.072597 443.477215,215.010739 443.162109,215.719727 C442.847004,216.428714 442.277673,216.980141 441.454102,217.374023 L443.90332,226 L439.832031,226 L437.876953,218.029297 L436.770508,218.029297 L436.770508,226 L432.838867,226 Z M445.987305,226 L445.987305,208.189453 L453.990234,208.189453 L453.990234,210.875 L449.918945,210.875 L449.918945,215.279297 L453.023438,215.279297 L453.023438,218.018555 L449.918945,218.018555 L449.918945,223.335938 L454.033203,223.335938 L454.033203,226 L445.987305,226 Z M455.816406,226 L455.816406,208.189453 L458.587891,208.189453 L462.250977,216.740234 L462.250977,208.189453 L465.516602,208.189453 L465.516602,226 L462.852539,226 L459.178711,216.783203 L459.178711,226 L455.816406,226 Z M473.229492,226.24707 C472.234045,226.24707 471.38542,226.109214 470.683594,225.833496 C469.981767,225.557779 469.42855,225.15137 469.023926,224.614258 C468.619301,224.077146 468.327475,223.457686 468.148438,222.755859 C467.9694,222.054033 467.879883,221.230473 467.879883,220.285156 L467.879883,213.936523 C467.879883,212.969722 467.9694,212.130049 468.148438,211.41748 C468.327475,210.704912 468.619301,210.081871 469.023926,209.54834 C469.42855,209.014809 469.979977,208.613771 470.678223,208.345215 C471.376468,208.076659 472.226883,207.942383 473.229492,207.942383 C474.189132,207.942383 475.007321,208.064126 475.684082,208.307617 C476.360843,208.551108 476.890786,208.909177 477.273926,209.381836 C477.657066,209.854495 477.932779,210.391599 478.101074,210.993164 C478.269369,211.59473 478.353516,212.292965 478.353516,213.087891 L478.353516,214.65625 L474.507812,214.65625 L474.507812,212.862305 C474.507812,212.583006 474.504232,212.371746 474.49707,212.228516 C474.489909,212.085286 474.464844,211.90088 474.421875,211.675293 C474.378906,211.449706 474.316244,211.279623 474.233887,211.165039 C474.15153,211.050455 474.024415,210.948405 473.852539,210.858887 C473.680663,210.769368 473.472983,210.724609 473.229492,210.724609 C472.986001,210.724609 472.778321,210.769368 472.606445,210.858887 C472.434569,210.948405 472.303874,211.055826 472.214355,211.181152 C472.124837,211.306478 472.053223,211.478352 471.999512,211.696777 C471.945801,211.915203 471.913574,212.113931 471.902832,212.292969 C471.89209,212.472006 471.886719,212.694009 471.886719,212.958984 L471.886719,221.262695 C471.886719,221.978845 471.979817,222.5249 472.166016,222.900879 C472.352214,223.276857 472.706703,223.464844 473.229492,223.464844 C473.465821,223.464844 473.668131,223.420085 473.836426,223.330566 C474.004721,223.241048 474.131836,223.135417 474.217773,223.013672 C474.303711,222.891926 474.369954,222.720053 474.416504,222.498047 C474.463054,222.276041 474.489909,222.082683 474.49707,221.917969 C474.504232,221.753254 474.507812,221.534832 474.507812,221.262695 L474.507812,219.393555 L478.353516,219.393555 L478.353516,220.929688 C478.353516,221.56706 478.303386,222.143552 478.203125,222.65918 C478.102864,223.174807 477.932781,223.659991 477.692871,224.114746 C477.452961,224.569501 477.141441,224.950845 476.758301,225.258789 C476.375161,225.566733 475.886396,225.80843 475.291992,225.983887 C474.697588,226.159343 474.010095,226.24707 473.229492,226.24707 Z M480.566406,226 L480.566406,208.189453 L484.508789,208.189453 L484.508789,215.386719 L487.248047,215.386719 L487.248047,208.189453 L491.19043,208.189453 L491.19043,226 L487.248047,226 L487.248047,218.201172 L484.508789,218.201172 L484.508789,226 L480.566406,226 Z" id="path-5"></path>
        <path d="M120.134766,146.866211 L122.036133,146.866211 L121.080078,139.969727 L120.134766,146.866211 Z M115.461914,153 L118.834961,135.189453 L123.282227,135.189453 L126.633789,153 L123.00293,153 L122.390625,149.21875 L119.791016,149.21875 L119.189453,153 L115.461914,153 Z M132.348633,142.762695 L133.358398,142.762695 C134.160486,142.762695 134.726235,142.555015 135.055664,142.139648 C135.385093,141.724282 135.549805,141.09766 135.549805,140.259766 C135.549805,139.436194 135.401206,138.825686 135.104004,138.428223 C134.806802,138.03076 134.292972,137.832031 133.5625,137.832031 L132.348633,137.832031 L132.348633,142.762695 Z M128.416992,153 L128.416992,135.189453 L133.272461,135.189453 C134.024418,135.189453 134.690427,135.232421 135.270508,135.318359 C135.850589,135.404297 136.394854,135.554686 136.90332,135.769531 C137.411786,135.984376 137.830728,136.267251 138.160156,136.618164 C138.489585,136.969077 138.747395,137.420245 138.933594,137.97168 C139.119793,138.523115 139.212891,139.16764 139.212891,139.905273 C139.212891,141.072597 139.05534,142.010739 138.740234,142.719727 C138.425129,143.428714 137.855798,143.980141 137.032227,144.374023 L139.481445,153 L135.410156,153 L133.455078,145.029297 L132.348633,145.029297 L132.348633,153 L128.416992,153 Z M145.389648,146.866211 L147.291016,146.866211 L146.334961,139.969727 L145.389648,146.866211 Z M140.716797,153 L144.089844,135.189453 L148.537109,135.189453 L151.888672,153 L148.257812,153 L147.645508,149.21875 L145.045898,149.21875 L144.444336,153 L140.716797,153 Z M157.603516,142.311523 L158.355469,142.311523 C159.200525,142.311523 159.775226,142.121747 160.07959,141.742188 C160.383953,141.362628 160.536133,140.761072 160.536133,139.9375 C160.536133,138.533847 159.766284,137.832031 158.226562,137.832031 L157.603516,137.832031 L157.603516,142.311523 Z M157.603516,150.25 L158.430664,150.25 C159.282882,150.25 159.880858,150.04232 160.224609,149.626953 C160.568361,149.211586 160.740234,148.55632 160.740234,147.661133 C160.740234,146.658524 160.56478,145.949546 160.213867,145.53418 C159.862954,145.118813 159.250655,144.911133 158.376953,144.911133 L157.603516,144.911133 L157.603516,150.25 Z M153.671875,153 L153.671875,135.189453 L158.3125,135.189453 C158.978519,135.189453 159.571124,135.22347 160.090332,135.291504 C160.60954,135.359538 161.12516,135.493814 161.637207,135.694336 C162.149254,135.894858 162.571776,136.161619 162.904785,136.494629 C163.237795,136.827638 163.504556,137.280596 163.705078,137.853516 C163.891277,138.383466 163.980794,138.999345 163.973633,139.701172 L163.973633,139.851562 C163.944987,141.928396 163.074878,143.120767 161.363281,143.428711 C162.387375,143.564779 163.167966,143.994463 163.705078,144.717773 C164.24219,145.441084 164.517904,146.440098 164.532227,147.714844 L164.532227,147.833008 C164.525065,149.573251 164.070317,150.865881 163.167969,151.710938 C162.236975,152.570317 160.897795,153 159.150391,153 L153.671875,153 Z M166.637695,153 L166.637695,135.189453 L170.569336,135.189453 L170.569336,153 L166.637695,153 Z M178.314453,153.24707 C177.319005,153.24707 176.470381,153.109214 175.768555,152.833496 C175.066728,152.557779 174.513511,152.15137 174.108887,151.614258 C173.704262,151.077146 173.412436,150.457686 173.233398,149.755859 C173.054361,149.054033 172.964844,148.230473 172.964844,147.285156 L172.964844,140.936523 C172.964844,139.969722 173.054361,139.130049 173.233398,138.41748 C173.412436,137.704912 173.704262,137.081871 174.108887,136.54834 C174.513511,136.014809 175.064938,135.613771 175.763184,135.345215 C176.461429,135.076659 177.311844,134.942383 178.314453,134.942383 C179.274093,134.942383 180.092282,135.064126 180.769043,135.307617 C181.445804,135.551108 181.975747,135.909177 182.358887,136.381836 C182.742027,136.854495 183.01774,137.391599 183.186035,137.993164 C183.35433,138.59473 183.438477,139.292965 183.438477,140.087891 L183.438477,141.65625 L179.592773,141.65625 L179.592773,139.862305 C179.592773,139.583006 179.589193,139.371746 179.582031,139.228516 C179.57487,139.085286 179.549805,138.90088 179.506836,138.675293 C179.463867,138.449706 179.401205,138.279623 179.318848,138.165039 C179.23649,138.050455 179.109376,137.948405 178.9375,137.858887 C178.765624,137.769368 178.557944,137.724609 178.314453,137.724609 C178.070962,137.724609 177.863282,137.769368 177.691406,137.858887 C177.51953,137.948405 177.388835,138.055826 177.299316,138.181152 C177.209798,138.306478 177.138184,138.478352 177.084473,138.696777 C177.030761,138.915203 176.998535,139.113931 176.987793,139.292969 C176.977051,139.472006 176.97168,139.694009 176.97168,139.958984 L176.97168,148.262695 C176.97168,148.978845 177.064778,149.5249 177.250977,149.900879 C177.437175,150.276857 177.791664,150.464844 178.314453,150.464844 C178.550782,150.464844 178.753092,150.420085 178.921387,150.330566 C179.089682,150.241048 179.216796,150.135417 179.302734,150.013672 C179.388672,149.891926 179.454915,149.720053 179.501465,149.498047 C179.548015,149.276041 179.57487,149.082683 179.582031,148.917969 C179.589193,148.753254 179.592773,148.534832 179.592773,148.262695 L179.592773,146.393555 L183.438477,146.393555 L183.438477,147.929688 C183.438477,148.56706 183.388347,149.143552 183.288086,149.65918 C183.187825,150.174807 183.017742,150.659991 182.777832,151.114746 C182.537922,151.569501 182.226402,151.950845 181.843262,152.258789 C181.460122,152.566733 180.971357,152.80843 180.376953,152.983887 C179.782549,153.159343 179.095056,153.24707 178.314453,153.24707 Z" id="path-6"></path>
        <path d="M232.310547,254 L232.310547,236.189453 L236.242188,236.189453 L236.242188,243.429688 L239.25,236.189453 L243.084961,236.189453 L239.787109,244.235352 L243.246094,254 L239.228516,254 L236.628906,246.040039 L236.242188,246.652344 L236.242188,254 L232.310547,254 Z M249.734375,254.24707 C248.746089,254.24707 247.902836,254.116375 247.20459,253.85498 C246.506344,253.593586 245.951337,253.20329 245.539551,252.684082 C245.127765,252.164874 244.830567,251.554365 244.647949,250.852539 C244.465331,250.150713 244.374023,249.323572 244.374023,248.371094 L244.374023,241.796875 C244.374023,240.837235 244.465331,240.008304 244.647949,239.310059 C244.830567,238.611813 245.127765,238.004885 245.539551,237.489258 C245.951337,236.97363 246.506344,236.586915 247.20459,236.329102 C247.902836,236.071288 248.746089,235.942383 249.734375,235.942383 C251.660817,235.942383 253.041174,236.434728 253.875488,237.419434 C254.709802,238.404139 255.126953,239.863272 255.126953,241.796875 L255.126953,248.371094 C255.126953,250.304697 254.709802,251.76741 253.875488,252.759277 C253.041174,253.751144 251.660817,254.24707 249.734375,254.24707 Z M249.12207,251.335938 C249.293946,251.421875 249.498046,251.464844 249.734375,251.464844 C249.970704,251.464844 250.174804,251.423666 250.34668,251.341309 C250.518556,251.258951 250.651041,251.155111 250.744141,251.029785 C250.83724,250.904459 250.910644,250.741537 250.964355,250.541016 C251.018067,250.340494 251.052083,250.152507 251.066406,249.977051 C251.080729,249.801594 251.087891,249.592124 251.087891,249.348633 L251.087891,240.808594 C251.087891,240.572264 251.080729,240.366375 251.066406,240.190918 C251.052083,240.015461 251.018067,239.829265 250.964355,239.632324 C250.910644,239.435383 250.83724,239.276042 250.744141,239.154297 C250.651041,239.032551 250.518556,238.930502 250.34668,238.848145 C250.174804,238.765787 249.970704,238.724609 249.734375,238.724609 C249.498046,238.724609 249.295737,238.765787 249.127441,238.848145 C248.959146,238.930502 248.828451,239.030761 248.735352,239.148926 C248.642252,239.26709 248.570638,239.428222 248.520508,239.632324 C248.470377,239.836427 248.439941,240.020833 248.429199,240.185547 C248.418457,240.350261 248.413086,240.557941 248.413086,240.808594 L248.413086,249.348633 C248.413086,249.599285 248.418457,249.808756 248.429199,249.977051 C248.439941,250.145346 248.470377,250.331542 248.520508,250.535645 C248.570638,250.739747 248.642252,250.902669 248.735352,251.024414 C248.828451,251.146159 248.957356,251.25 249.12207,251.335938 Z M261.421875,243.762695 L262.431641,243.762695 C263.233728,243.762695 263.799478,243.555015 264.128906,243.139648 C264.458335,242.724282 264.623047,242.09766 264.623047,241.259766 C264.623047,240.436194 264.474448,239.825686 264.177246,239.428223 C263.880044,239.03076 263.366215,238.832031 262.635742,238.832031 L261.421875,238.832031 L261.421875,243.762695 Z M257.490234,254 L257.490234,236.189453 L262.345703,236.189453 C263.09766,236.189453 263.763669,236.232421 264.34375,236.318359 C264.923831,236.404297 265.468096,236.554686 265.976562,236.769531 C266.485029,236.984376 266.90397,237.267251 267.233398,237.618164 C267.562827,237.969077 267.820637,238.420245 268.006836,238.97168 C268.193035,239.523115 268.286133,240.16764 268.286133,240.905273 C268.286133,242.072597 268.128582,243.010739 267.813477,243.719727 C267.498371,244.428714 266.929041,244.980141 266.105469,245.374023 L268.554688,254 L264.483398,254 L262.52832,246.029297 L261.421875,246.029297 L261.421875,254 L257.490234,254 Z M270.638672,254 L270.638672,236.189453 L278.641602,236.189453 L278.641602,238.875 L274.570312,238.875 L274.570312,243.279297 L277.674805,243.279297 L277.674805,246.018555 L274.570312,246.018555 L274.570312,251.335938 L278.68457,251.335938 L278.68457,254 L270.638672,254 Z M284.291992,247.866211 L286.193359,247.866211 L285.237305,240.969727 L284.291992,247.866211 Z M279.619141,254 L282.992188,236.189453 L287.439453,236.189453 L290.791016,254 L287.160156,254 L286.547852,250.21875 L283.948242,250.21875 L283.34668,254 L279.619141,254 Z M292.574219,254 L292.574219,236.189453 L295.345703,236.189453 L299.008789,244.740234 L299.008789,236.189453 L302.274414,236.189453 L302.274414,254 L299.610352,254 L295.936523,244.783203 L295.936523,254 L292.574219,254 Z" id="path-7"></path>
        <path d="M135.961914,231.257812 C135.059566,231.257812 134.287926,231.112794 133.646973,230.822754 C133.006019,230.532713 132.499351,230.108401 132.126953,229.549805 C131.754555,228.991208 131.484213,228.346683 131.315918,227.616211 C131.147623,226.885739 131.063477,226.040695 131.063477,225.081055 L131.063477,219.162109 C131.063477,218.374345 131.118977,217.668948 131.22998,217.045898 C131.340984,216.422848 131.523599,215.849938 131.777832,215.327148 C132.032065,214.804359 132.363279,214.371095 132.771484,214.027344 C133.17969,213.683592 133.688148,213.41683 134.296875,213.227051 C134.905602,213.037271 135.610999,212.942383 136.413086,212.942383 C137.186527,212.942383 137.87044,213.024739 138.464844,213.189453 C139.059248,213.354167 139.555174,213.583332 139.952637,213.876953 C140.3501,214.170574 140.674152,214.537595 140.924805,214.978027 C141.175457,215.418459 141.354492,215.898272 141.461914,216.41748 C141.569336,216.936689 141.623047,217.518551 141.623047,218.163086 L141.623047,219.291016 L137.777344,219.291016 L137.777344,217.862305 C137.777344,217.590168 137.771973,217.368165 137.76123,217.196289 C137.750488,217.024413 137.721843,216.834636 137.675293,216.626953 C137.628743,216.41927 137.56071,216.258139 137.471191,216.143555 C137.381673,216.028971 137.252768,215.930502 137.084473,215.848145 C136.916178,215.765787 136.710288,215.724609 136.466797,215.724609 C136.216145,215.724609 136.003093,215.771158 135.827637,215.864258 C135.65218,215.957357 135.517904,216.070149 135.424805,216.202637 C135.331705,216.335124 135.258301,216.512369 135.20459,216.734375 C135.150879,216.956381 135.118652,217.15869 135.10791,217.341309 C135.097168,217.523927 135.091797,217.74772 135.091797,218.012695 L135.091797,226.166016 C135.091797,226.875004 135.197427,227.435382 135.408691,227.847168 C135.619955,228.258954 136.00488,228.464844 136.563477,228.464844 C137.594732,228.464844 138.110352,227.673511 138.110352,226.09082 L138.110352,224.092773 L136.499023,224.092773 L136.499023,221.740234 L141.666016,221.740234 L141.666016,231 L139.055664,231 L138.830078,229.506836 C138.307289,230.674159 137.351244,231.257812 135.961914,231.257812 Z M144.09375,231 L144.09375,213.189453 L152.09668,213.189453 L152.09668,215.875 L148.025391,215.875 L148.025391,220.279297 L151.129883,220.279297 L151.129883,223.018555 L148.025391,223.018555 L148.025391,228.335938 L152.139648,228.335938 L152.139648,231 L144.09375,231 Z M157.854492,220.762695 L158.864258,220.762695 C159.666345,220.762695 160.232095,220.555015 160.561523,220.139648 C160.890952,219.724282 161.055664,219.09766 161.055664,218.259766 C161.055664,217.436194 160.907065,216.825686 160.609863,216.428223 C160.312661,216.03076 159.798832,215.832031 159.068359,215.832031 L157.854492,215.832031 L157.854492,220.762695 Z M153.922852,231 L153.922852,213.189453 L158.77832,213.189453 C159.530277,213.189453 160.196286,213.232421 160.776367,213.318359 C161.356448,213.404297 161.900714,213.554686 162.40918,213.769531 C162.917646,213.984376 163.336587,214.267251 163.666016,214.618164 C163.995444,214.969077 164.253254,215.420245 164.439453,215.97168 C164.625652,216.523115 164.71875,217.16764 164.71875,217.905273 C164.71875,219.072597 164.561199,220.010739 164.246094,220.719727 C163.930988,221.428714 163.361658,221.980141 162.538086,222.374023 L164.987305,231 L160.916016,231 L158.960938,223.029297 L157.854492,223.029297 L157.854492,231 L153.922852,231 Z M167.017578,231 L167.307617,213.189453 L171.518555,213.189453 L173.495117,223.609375 L175.62207,213.189453 L179.693359,213.189453 L179.983398,231 L177.168945,231 L176.878906,219.183594 L174.78418,231 L172.324219,231 L170.132812,219.097656 L169.864258,231 L167.017578,231 Z M186.375,224.866211 L188.276367,224.866211 L187.320312,217.969727 L186.375,224.866211 Z M181.702148,231 L185.075195,213.189453 L189.522461,213.189453 L192.874023,231 L189.243164,231 L188.630859,227.21875 L186.03125,227.21875 L185.429688,231 L181.702148,231 Z M194.657227,231 L194.657227,213.189453 L197.428711,213.189453 L201.091797,221.740234 L201.091797,213.189453 L204.357422,213.189453 L204.357422,231 L201.693359,231 L198.019531,221.783203 L198.019531,231 L194.657227,231 Z" id="path-8"></path>
    </defs>
    <g id="Page-1" stroke="none" stroke-width="1" fill="none" fill-rule="evenodd">
        <g id="CaseGuard-Languages">
            <polygon id="Line" fill="#000000" points="473.932493 24.6171875 465.259739 19.738763 464.388163 19.2485018 465.368686 17.5053507 466.240261 17.995612 478.240261 24.745612 479.789729 25.6171875 478.240261 26.488763 466.240261 33.238763 465.368686 33.7290243 464.388163 31.9858732 465.259739 31.495612 473.932493 26.6171875 465.75 26.6171875 442 26.6171875 441 26.6171875 441 24.6171875 442 24.6171875 465.75 24.6171875"></polygon>
            <rect id="Rectangle" fill="#F1F1F1" x="0" y="0" width="558" height="332"></rect>
            <circle id="Oval" fill="#F26A37" cx="456" cy="145" r="21"></circle>
            <polygon id="Triangle" fill-opacity="0.95" fill="#017382" points="330.5 260 333.5 262.5 336.5 264.5 340.5 266 344.5 267.5 330 277"></polygon>
            <path d="M457,145 C459.209375,145 461,142.985547 461,140.5 C461,138.014453 459.209375,136 457,136 C454.790625,136 453,138.014453 453,140.5 C453,142.985547 454.790625,145 457,145 Z M459.8,145 L459.278125,145 C458.584375,145.364286 457.8125,145.571429 457,145.571429 C456.1875,145.571429 455.41875,145.364286 454.721875,145 L454.2,145 C451.88125,145 450,147.15 450,149.8 L450,151.285714 C450,152.232143 450.671875,153 451.5,153 L462.5,153 C463.328125,153 464,152.232143 464,151.285714 L464,149.8 C464,147.15 462.11875,145 459.8,145 Z" id="Shape" fill="#FFFFFF" fill-rule="nonzero"></path>
            <circle id="Oval" fill="#255792" cx="243.5" cy="170.5" r="30.5"></circle>
            <path d="M243.5,171 C246.537891,171 249,168.537891 249,165.5 C249,162.462109 246.537891,160 243.5,160 C240.462109,160 238,162.462109 238,165.5 C238,168.537891 240.462109,171 243.5,171 Z M246.6,171 L245.929018,171 C245.037054,171.455357 244.044643,171.714286 243,171.714286 C241.955357,171.714286 240.966964,171.455357 240.070982,171 L239.4,171 C236.41875,171 234,173.6875 234,177 L234,178.857143 C234,180.040179 234.863839,181 235.928571,181 L250.071429,181 C251.136161,181 252,180.040179 252,178.857143 L252,177 C252,173.6875 249.58125,171 246.6,171 Z" id="Shape" fill="#FFFFFF" fill-rule="nonzero"></path>
            <circle id="Oval" fill="#FDBE35" cx="89" cy="179" r="37"></circle>
            <circle id="Oval" fill="#255792" cx="98" cy="243" r="13"></circle>
            <circle id="Oval" fill="#E31491" cx="38.5" cy="239.5" r="7.5"></circle>
            <circle id="Oval" fill="#12A6B4" cx="477" cy="107" r="8"></circle>
            <circle id="Oval" fill="#9BCF38" cx="502" cy="170" r="6"></circle>
            <circle id="Oval" fill="#255792" cx="290.5" cy="49.5" r="7.5"></circle>
            <circle id="Oval" fill="#F26A37" cx="59" cy="216" r="13"></circle>
            <circle id="Oval" fill="#E31491" cx="320" cy="41" r="13"></circle>
            <circle id="Oval" fill="#E31491" cx="522.5" cy="185.5" r="4.5"></circle>
            <circle id="Oval" fill="#12A6B4" cx="379" cy="277" r="13"></circle>
            <circle id="Oval" fill="#F26A37" cx="214" cy="291" r="10"></circle>
            <circle id="Oval" fill="#9D396B" cx="507.5" cy="197.5" r="7.5"></circle>
            <circle id="Oval" fill="#9D396B" cx="207.5" cy="172.5" r="7.5"></circle>
            <circle id="Oval" fill="#9BCF38" cx="212" cy="79" r="56"></circle>
            <g id="PORTUGUESE">
                <use fill="#000000" xlink:href="#path-1"></use>
                <use fill="#FFFFFF" xlink:href="#path-1"></use>
            </g>
            <circle id="Oval" fill-opacity="0.931329257" fill="#E10389" cx="148.5" cy="146.5" r="49.5"></circle>
            <circle id="Oval" fill-opacity="0.907863451" fill="#F35E25" cx="299.5" cy="130.5" r="51.5"></circle>
            <polygon id="Triangle" fill="#F26A37" transform="translate(301.000000, 186.500000) rotate(180.000000) translate(-301.000000, -186.500000) " points="300.5 177 314 196 288 195.486486"></polygon>
            <g id="ENGLISH">
                <use fill="#000000" xlink:href="#path-2"></use>
                <use fill="#FFFFFF" xlink:href="#path-2"></use>
            </g>
            <circle id="Oval" fill="#FDBE35" cx="379" cy="180" r="42"></circle>
            <g id="ITALIAN">
                <use fill="#000000" xlink:href="#path-3"></use>
                <use fill="#FFFFFF" xlink:href="#path-3"></use>
            </g>
            <circle id="Oval" fill-opacity="0.929093071" fill="#164B8B" cx="455.5" cy="217.5" r="47.5"></circle>
            <circle id="Oval" fill="#93235B" cx="266.5" cy="244.5" r="50.5"></circle>
            <circle id="Oval" fill-opacity="0.905315897" fill="#029351" cx="395.5" cy="105.5" r="47.5"></circle>
            <g id="SPANISH">
                <use fill="#000000" xlink:href="#path-4"></use>
                <use fill="#FFFFFF" xlink:href="#path-4"></use>
            </g>
            <g id="FRENCH">
                <use fill="#000000" xlink:href="#path-5"></use>
                <use fill="#FFFFFF" xlink:href="#path-5"></use>
            </g>
            <g id="ARABIC">
                <use fill="#000000" xlink:href="#path-6"></use>
                <use fill="#FFFFFF" xlink:href="#path-6"></use>
            </g>
            <circle id="Oval" fill-opacity="0.95" fill="#017382" cx="352" cy="237" r="32"></circle>
            <path d="M353,236 C356.314062,236 359,233.314063 359,230 C359,226.685937 356.314062,224 353,224 C349.685938,224 347,226.685937 347,230 C347,233.314063 349.685938,236 353,236 Z M356.7,237 L355.917188,237 C354.876562,237.500893 353.71875,237.785714 352.5,237.785714 C351.28125,237.785714 350.128125,237.500893 349.082812,237 L348.3,237 C344.821875,237 342,239.95625 342,243.6 L342,245.642857 C342,246.944196 343.007812,248 344.25,248 L360.75,248 C361.992188,248 363,246.944196 363,245.642857 L363,243.6 C363,239.95625 360.178125,237 356.7,237 Z" id="Shape" fill="#FFFFFF" fill-rule="nonzero"></path>
            <circle id="Oval" fill-opacity="0.929574275" fill="#01A1B0" cx="167.5" cy="221.5" r="49.5"></circle>
            <g id="KOREAN">
                <use fill="#000000" xlink:href="#path-7"></use>
                <use fill="#FFFFFF" xlink:href="#path-7"></use>
            </g>
            <g id="GERMAN">
                <use fill="#000000" xlink:href="#path-8"></use>
                <use fill="#FFFFFF" xlink:href="#path-8"></use>
            </g>
            <polygon id="Triangle" fill="#93235B" transform="translate(272.000000, 300.000000) rotate(180.000000) translate(-272.000000, -300.000000) " points="268.326531 290 284 306.5 260 310"></polygon>
            <polygon id="Triangle" fill="#12A6B4" transform="translate(179.000000, 272.000000) rotate(180.000000) translate(-179.000000, -272.000000) " points="173.344262 261 194 274 164 283"></polygon>
            <polygon id="Triangle" fill="#F26A37" points="442.206349 159 455 164.055556 442 172"></polygon>
            <path d="M88.5,179 C92.6425781,179 96,175.41875 96,171 C96,166.58125 92.6425781,163 88.5,163 C84.3574219,163 81,166.58125 81,171 C81,175.41875 84.3574219,179 88.5,179 Z M93.9,180 L92.8935268,180 C91.5555804,180.683036 90.0669643,181.071429 88.5,181.071429 C86.9330357,181.071429 85.4504464,180.683036 84.1064732,180 L83.1,180 C78.628125,180 75,184.03125 75,189 L75,191.785714 C75,193.560268 76.2957589,195 77.8928571,195 L99.1071429,195 C100.704241,195 102,193.560268 102,191.785714 L102,189 C102,184.03125 98.371875,180 93.9,180 Z" id="Shape" fill="#FFFFFF" fill-rule="nonzero"></path>
        </g>
    </g>
</svg>